<?xml version="1.0" encoding="utf-8"?>
<!-- Generator: Adobe Illustrator 21.0.0, SVG Export Plug-In . SVG Version: 6.00 Build 0)  -->
<svg version="1.1" id="mprove" xmlns="http://www.w3.org/2000/svg" xmlns:xlink="http://www.w3.org/1999/xlink" x="0px" y="0px"
	 viewBox="0 0 1008 254" style="enable-background:new 0 0 1008 254;" xml:space="preserve">
<style type="text/css">
	.st0{fill:#FBD6B5;}
	.st1{fill:#F47B0E;}
	.st2{fill:#F8AF6E;}
</style>
<g id="g_x5F_1">
	<path class="st0" d="M1,124.9c1.3-3,3-5.6,6.3-6.7c4.7-1.6,9.9,0.8,11.8,5.5c1.8,4.6-0.3,9.8-4.8,11.8c-4.6,2.1-10,0.3-12.2-4.2
		c-0.3-0.7-0.7-1.4-1-2.1C1,127.8,1,126.3,1,124.9z"/>
	<path class="st0" d="M124.9,253c-3-1.3-5.6-3-6.7-6.3c-1.6-4.7,0.8-9.9,5.5-11.8c4.6-1.8,9.8,0.3,11.8,4.8c2.1,4.6,0.3,10-4.2,12.2
		c-0.7,0.3-1.4,0.7-2.1,1C127.8,253,126.3,253,124.9,253z"/>
	<path class="st1" d="M324.1,87.3c9.3-9.8,20.1-14.5,32.9-14.3c13.3,0.3,22.8,6.8,29.2,18.4c5.7-8.1,12.9-13.9,22.2-16.6
		c11.7-3.3,22.9-2.5,33.3,4.4c8.3,5.6,12,13.8,13,23.5c0.7,6.3,0.9,12.6,0.9,18.9c0,18.2,0,36.3,0,54.5c0,2-0.4,2.6-2.5,2.5
		c-7-0.1-14.1-0.1-21.1,0c-2,0-2.5-0.4-2.5-2.5c0.1-16,0.1-32,0-48c0-5.7-0.2-11.3-1.2-17c-2.7-14.3-16.9-19.5-28.5-10.5
		c-5.7,4.4-8.1,10.5-9,17.4c-0.7,5.5-0.9,11-0.9,16.5c0,13.8,0,27.7,0,41.5c0,1.9-0.3,2.6-2.4,2.6c-7-0.1-14.1-0.1-21.1,0
		c-1.9,0-2.5-0.4-2.5-2.4C364,160.1,364,144,364,128c0-5.6-0.2-11.2-1.4-16.7c-1.5-6.8-4.7-12.4-12-14.2c-7.9-1.9-14.5,0.6-19.8,6.7
		c-4.1,4.7-5.6,10.5-6.2,16.6c-1.1,10.7-0.5,21.4-0.6,32.1c-0.1,8-0.1,16,0,24c0,1.7-0.4,2.2-2.1,2.2c-7.3-0.1-14.6-0.1-21.8,0
		c-1.5,0-2-0.3-2-2c0-33.1,0-66.2,0-99.3c0-1.3,0.2-2,1.8-2c7.4,0.1,14.9,0.1,22.3,0c1.5,0,1.9,0.4,1.9,1.9
		C324,80.4,324.1,83.5,324.1,87.3z"/>
	<path class="st1" d="M127.2,156.1c-15.9,0-28.8-13-28.7-28.9c0-15.9,13.1-28.7,29-28.7c15.8,0.1,28.6,13,28.6,28.8
		C156.1,143.2,143.1,156.1,127.2,156.1z"/>
	<path class="st1" d="M837.6,150.5c10.3-22.7,20.4-44.9,30.5-67.2c0.9-2,1.9-3.9,2.6-5.9c0.6-1.4,1.3-2.1,3-2
		c3.9,0.2,7.8,0.1,11.8,0.1c0.3,1.1-0.4,1.8-0.7,2.5c-15,32.9-30,65.8-45,98.7c-0.4,1-0.6,2.1-2.2,2.1c-1.5-0.1-1.6-1.2-2-2
		c-15.1-33-30.3-66-45.4-99c-0.3-0.6-0.8-1.2-0.6-2.2c4.2,0,8.4,0,12.6,0c1.6,0,1.6,1.3,2.1,2.2c9.8,21.3,19.6,42.7,29.3,64
		C834.8,144.5,836.1,147.3,837.6,150.5z"/>
	<path class="st1" d="M622.5,90.2c1.7-2.1,2.9-3.7,4.2-5.3c6.1-7,13.3-12,23-11.9c3.6,0,6.9,1.3,10.1,2.8c1,0.5,1,1,0.5,1.8
		c-1.9,3-3.7,6-5.5,9c-0.4,0.7-0.8,0.9-1.7,0.7c-10.3-2.6-17.7,0.5-23.3,9.6c-3.4,5.5-5.3,11.6-6,18c-1.8,16.8-1.1,33.7-1.3,50.6
		c0,3.8-0.1,7.5,0,11.3c0,1.3-0.3,1.8-1.7,1.8c-3.4-0.1-6.9-0.1-10.3,0c-1.1,0-1.7-0.3-1.5-1.5c0-0.4,0-0.8,0-1.2
		c0-32.6,0-65.3-0.1-97.9c0-2.2,0.6-2.8,2.8-2.7c2.9,0.2,5.9,0.1,8.9,0c1.6-0.1,2,0.5,2,2C622.5,81.5,622.5,85.5,622.5,90.2z"/>
	<path class="st2" d="M144.6,59.7c0,9.4-7.8,17.2-17.3,17.2c-9.6,0-17.3-7.8-17.3-17.4c0-9.4,7.9-17.1,17.4-17.1
		C136.8,42.4,144.6,50.2,144.6,59.7z"/>
	<path class="st0" d="M68.6,86c-9.3,0-17.2-7.9-17.2-17.3c0-9.5,7.9-17.3,17.5-17.3c9.3,0,17.1,8,17.1,17.4C86,78.2,78.1,86,68.6,86
		z"/>
	<path class="st0" d="M185.7,51.4c9.3,0,17.1,8,17.1,17.4s-8,17.2-17.6,17.1c-9.3-0.1-17-8-16.9-17.6
		C168.1,59.2,176.2,51.4,185.7,51.4z"/>
	<path class="st2" d="M76.9,127.4c0,9.4-7.9,17.2-17.3,17.1c-9.5,0-17.3-7.9-17.2-17.5c0-9.4,8-17.1,17.5-17
		C69.2,110.1,76.9,117.9,76.9,127.4z"/>
	<path class="st2" d="M212.3,127.4c0,9.4-7.9,17.2-17.4,17.1c-9.5,0-17.3-7.9-17.2-17.5c0.1-9.4,8-17.1,17.5-17
		C204.6,110.1,212.4,117.9,212.3,127.4z"/>
	<path class="st0" d="M68.9,168.1c9.3,0,17.1,8,17.1,17.4c0,9.5-7.9,17.2-17.6,17.2c-9.3,0-17-8-17-17.5
		C51.5,175.9,59.5,168.1,68.9,168.1z"/>
	<path class="st0" d="M202.7,185.5c0,9.4-7.9,17.2-17.3,17.2c-9.5,0-17.3-7.9-17.3-17.5c0-9.3,8-17.1,17.4-17.1
		C194.9,168.1,202.8,176.1,202.7,185.5z"/>
	<path class="st2" d="M110,194.9c0-9.4,7.9-17.2,17.3-17.2c9.4,0,17.2,7.8,17.3,17.2c0,9.6-7.8,17.4-17.4,17.3
		C117.7,212.2,110,204.4,110,194.9z"/>
	<path class="st0" d="M136.4,10.6c-0.1,5.1-4.3,9.2-9.4,9.1c-5.2,0-9.3-4.3-9.3-9.6c0.1-5.2,4.4-9.3,9.7-9.1
		C132.4,1.2,136.5,5.5,136.4,10.6z"/>
	<path class="st0" d="M243.7,136.4c-5.2,0-9.4-4.3-9.3-9.5c0.1-5.1,4.3-9.2,9.4-9.2c5.2,0,9.4,4.3,9.3,9.5
		C253.1,132.3,248.8,136.4,243.7,136.4z"/>
	<path class="st1" d="M567,83c-19-13.9-45.2-13.3-62.7,1.4c-3.2,2.7-6,5.9-9,9.9c0-6.1-0.1-11.4,0-16.7c0-1.6-0.3-2.3-2.1-2.2
		c-2.8,0.1-5.6,0.2-8.4,0c-2.2-0.2-2.7,0.5-2.7,2.7c0.1,45.3,0.1,90.5,0.1,135.8c0,0.4,0,0.8,0,1.2c-0.2,1.2,0.4,1.5,1.5,1.5
		c3-0.1,6.1-0.2,9.1,0c2.3,0.2,2.6-0.7,2.6-2.7c-0.1-16.8,0-33.6,0-50.4c0-0.7-0.3-1.5,0.3-2.4c0.8,0.9,1.5,1.6,2.2,2.4
		c15.2,17,39.2,22.5,59.5,13.2C595.4,159.5,600.7,107.7,567,83z M543,168.2c-22.2,4.7-44.6-10.8-47.9-33.2c-2-13.5,0.4-26,9.8-36.4
		c20.1-22.4,55.4-16.4,67.5,11.4c2.4,5.4,3.6,11.1,3.5,16.3C575.8,147,562.1,164.2,543,168.2z"/>
	<path class="st1" d="M1007,125.6c-0.2-5.1-0.9-10.2-2.3-15.1c-6.2-21.4-23.6-35.5-46.4-37.3c-12.9-1-25.2,1.4-35.5,9.7
		c-17.6,14.1-24.6,32.6-20.7,54.7c2.9,16.6,11.8,29.7,27,37.9c8.7,4.7,18.2,5.9,27.9,5.6c21.2-0.8,36.3-11.2,46.1-29.8
		c0.5-1,0.4-1.5-0.6-2c-2.9-1.4-5.7-2.9-8.5-4.5c-1.3-0.7-1.7-0.3-2.4,0.8c-1.4,2.3-3,4.5-4.5,6.8c-9.4,13.7-28.1,19.3-43.2,15.6
		c-16-3.9-28.6-19-29.1-38.7c-0.1-2,1.3-1.4,2.2-1.4c14.6,0,29.3,0,43.9,0c14.6,0,29.3,0,43.9,0
		C1006.6,127.8,1007.1,127.4,1007,125.6z M989.9,116.2c-23.8,0-47.5,0-71.3,0.1c-2.3,0-2.6-0.5-1.9-2.6c4-12.3,11.2-21.8,23.8-26.4
		c17.6-6.5,44.9,0.4,51.5,27.1c0.1,0.5,0.2,1.1,0.4,1.8C991.5,116.2,990.7,116.2,989.9,116.2z"/>
	<path class="st1" d="M774.2,127.4c0-30.5-23.2-54-53-54.4c-30.8-0.4-54,25.2-54,54.3c0,27.2,21.2,53.8,53.3,53.9
		C754.1,181.3,774.9,153,774.2,127.4z M728.5,168.3c-22.2,4.5-43.9-10.6-47.1-33.2c-2.4-16.8,2.7-30.9,16.2-41.3
		c17.7-13.7,42.5-9.2,55.8,9.8c5.1,7.2,7.4,15.3,7.4,23.2C760.8,148.1,747.9,164.4,728.5,168.3z"/>
</g>
</svg>
