<?xml version="1.0" encoding="utf-8"?>
<!-- Generator: Adobe Illustrator 21.0.0, SVG Export Plug-In . SVG Version: 6.00 Build 0)  -->
<svg version="1.1" id="mprove" xmlns="http://www.w3.org/2000/svg" xmlns:xlink="http://www.w3.org/1999/xlink" x="0px" y="0px"
	 viewBox="0 0 254 254" style="enable-background:new 0 0 254 254;" xml:space="preserve">
<style type="text/css">
	.st0{fill:#FBD6B5;}
	.st1{fill:#F47B0E;}
	.st2{fill:#F8AF6E;}
</style>
<g id="g_x5F_1">
	<path class="st0" d="M1,124.9c1.3-3,3-5.6,6.3-6.7c4.7-1.6,9.9,0.8,11.8,5.5c1.8,4.6-0.3,9.8-4.8,11.8c-4.6,2.1-10,0.3-12.2-4.2
		c-0.3-0.7-0.7-1.4-1-2.1C1,127.8,1,126.3,1,124.9z"/>
	<path class="st0" d="M124.9,253c-3-1.3-5.6-3-6.7-6.3c-1.6-4.7,0.8-9.9,5.5-11.8c4.6-1.8,9.8,0.3,11.8,4.8c2.1,4.6,0.3,10-4.2,12.2
		c-0.7,0.3-1.4,0.7-2.1,1C127.8,253,126.3,253,124.9,253z"/>
	<path class="st1" d="M127.2,156.1c-15.9,0-28.8-13-28.7-28.9c0-15.9,13.1-28.7,29-28.7c15.8,0.1,28.6,13,28.6,28.8
		C156.1,143.2,143.1,156.1,127.2,156.1z"/>
	<path class="st2" d="M144.6,59.7c0,9.4-7.8,17.2-17.3,17.2c-9.6,0-17.3-7.8-17.3-17.4c0-9.4,7.9-17.1,17.4-17.1
		C136.8,42.4,144.6,50.2,144.6,59.7z"/>
	<path class="st0" d="M68.6,86c-9.3,0-17.2-7.9-17.2-17.3c0-9.5,7.9-17.3,17.5-17.3c9.3,0,17.1,8,17.1,17.4C86,78.2,78.1,86,68.6,86
		z"/>
	<path class="st0" d="M185.6,51.4c9.3,0,17.1,8,17.1,17.4s-8,17.2-17.6,17.1c-9.3-0.1-17-8-16.9-17.6
		C168.1,59.2,176.1,51.4,185.6,51.4z"/>
	<path class="st2" d="M76.9,127.4c0,9.4-7.9,17.2-17.3,17.1c-9.5,0-17.3-7.9-17.2-17.5c0-9.4,8-17.1,17.5-17
		C69.2,110.1,76.9,117.9,76.9,127.4z"/>
	<path class="st2" d="M212.2,127.4c0,9.4-7.9,17.2-17.4,17.1c-9.5,0-17.3-7.9-17.2-17.5c0.1-9.4,8-17.1,17.5-17
		C204.5,110.1,212.3,117.9,212.2,127.4z"/>
	<path class="st0" d="M68.9,168.1c9.3,0,17.1,8,17.1,17.4c0,9.5-7.9,17.2-17.6,17.2c-9.3,0-17-8-17-17.5
		C51.5,175.9,59.5,168.1,68.9,168.1z"/>
	<path class="st0" d="M202.6,185.5c0,9.4-7.9,17.2-17.3,17.2c-9.5,0-17.3-7.9-17.3-17.5c0-9.3,8-17.1,17.4-17.1
		C194.8,168.1,202.7,176.1,202.6,185.5z"/>
	<path class="st2" d="M110,194.9c0-9.4,7.9-17.2,17.3-17.2c9.4,0,17.2,7.8,17.3,17.2c0,9.6-7.8,17.4-17.4,17.3
		C117.7,212.2,110,204.4,110,194.9z"/>
	<path class="st0" d="M136.4,10.6c-0.1,5.1-4.3,9.2-9.4,9.1c-5.2,0-9.3-4.3-9.3-9.6c0.1-5.2,4.4-9.3,9.7-9.1
		C132.4,1.2,136.5,5.5,136.4,10.6z"/>
	<path class="st0" d="M243.6,136.4c-5.2,0-9.4-4.3-9.3-9.5c0.1-5.1,4.3-9.2,9.4-9.2c5.2,0,9.4,4.3,9.3,9.5
		C253,132.3,248.7,136.4,243.6,136.4z"/>
</g>
</svg>
