<?xml version="1.0" encoding="utf-8"?>

<svg version="1.1" id="Layer_1" xmlns="http://www.w3.org/2000/svg" xmlns:xlink="http://www.w3.org/1999/xlink" x="0px" y="0px"
	 viewBox="0 0 325.1 70.1" style="enable-background:new 0 0 325.1 70.1;" xml:space="preserve">
<style type="text/css">
	.st0{fill:#AAAAAA;}
	.st1{fill:#999999;}
	.st2{fill:#FFFFFF;}
</style>
<g>
	<g>
		<path class="st0" d="M28,39.6c-0.1-0.2-0.2-0.4-0.3-0.6c-0.1-0.2-0.3-0.4-0.5-0.6c-0.9-0.9-2.2-1.3-3.4-1
			c-0.2,0.1-0.5,0.1-0.7,0.2c-0.2,0.1-0.4,0.2-0.7,0.3c-0.2,0.1-0.4,0.3-0.6,0.5C21.2,39,20.8,40,20.8,41c0,0.2,0,0.5,0.1,0.7
			c0,0.2,0.1,0.5,0.2,0.7c0.1,0.2,0.2,0.4,0.3,0.7c0.1,0.2,0.3,0.4,0.5,0.6c0.7,0.7,1.7,1.1,2.6,1.1c1,0,1.9-0.4,2.6-1.1
			c0.2-0.2,0.3-0.4,0.5-0.6c0.1-0.2,0.3-0.4,0.3-0.7c0.1-0.2,0.2-0.5,0.2-0.7c0-0.2,0.1-0.5,0.1-0.7c0-0.3,0-0.5-0.1-0.7
			C28.2,40,28.1,39.8,28,39.6z"/>
		<path class="st0" d="M45.5,24.6c-2.1,0-3.7,1.7-3.7,3.7V41c0,2.1,1.7,3.7,3.7,3.7c2.1,0,3.7-1.7,3.7-3.7V28.3
			C49.3,26.2,47.6,24.6,45.5,24.6z"/>
		<path class="st0" d="M34.9,31.1c-2.1,0-3.7,1.7-3.7,3.7V41c0,2.1,1.7,3.7,3.7,3.7c2.1,0,3.7-1.7,3.7-3.7v-6.2
			C38.6,32.8,37,31.1,34.9,31.1z"/>
		<path class="st0" d="M35,0C15.7,0,0,15.7,0,35c0,0.1,0,0.2,0,0.4c0,0.1,0,0.1,0,0.2V66c0,2,1.7,3.7,3.7,3.7
			c1.2,0,29.8,0.3,31.3,0.3c19.3,0,35-15.7,35-35S54.4,0,35,0z M35,62.6c-1.2,0-19.5-0.2-27.6-0.3V36c0-0.1,0-0.3,0-0.4l0-0.5
			C7.5,19.8,19.8,7.5,35,7.5S62.6,19.8,62.6,35S50.2,62.6,35,62.6z"/>
	</g>
	<g>
		<path class="st1" d="M139,31.2V51h-8.1V32.2c0-6.1-2.8-9.1-7.7-9.1c-5.3,0-9,3.5-9,10.3V51h-8.1V32.2c0-6.1-2.8-9.1-7.7-9.1
			c-5.4,0-9,3.5-9,10.3V51h-8.1V16.5H89v4.4c2.6-3.1,6.6-4.8,11.3-4.8c5,0,9.2,1.9,11.6,5.7c2.8-3.5,7.4-5.7,12.9-5.7
			C133.2,16.1,139,20.8,139,31.2z"/>
		<path class="st1" d="M184.6,33.7c0,10.7-7.4,17.7-17.5,17.7c-4.4,0-8.3-1.5-11-4.6v16.7h-8.1v-47h7.7V21c2.7-3.3,6.7-4.9,11.4-4.9
			C177.2,16.1,184.6,23.1,184.6,33.7z M176.5,33.7c0-6.6-4.4-10.8-10.2-10.8S156,27.1,156,33.7s4.5,10.8,10.3,10.8
			S176.5,40.3,176.5,33.7z"/>
		<path class="st1" d="M211.5,16.1v7.7c-0.7-0.1-1.3-0.2-1.9-0.2c-6.1,0-10,3.6-10,10.6V51h-8.1V16.5h7.7v5
			C201.6,17.9,205.8,16.1,211.5,16.1z"/>
		<path class="st1" d="M214.4,33.7c0-10.3,7.7-17.6,18.3-17.6c10.7,0,18.4,7.3,18.4,17.6s-7.7,17.7-18.4,17.7
			C222.1,51.4,214.4,44,214.4,33.7z M243,33.7c0-6.6-4.4-10.8-10.3-10.8c-5.8,0-10.2,4.2-10.2,10.8s4.4,10.8,10.2,10.8
			C238.6,44.5,243,40.3,243,33.7z"/>
		<path class="st1" d="M289.4,16.5L274.6,51h-8.3l-14.8-34.5h8.4L270.6,42l11-25.6H289.4z"/>
		<path class="st1" d="M324.9,36.3h-27c1,5,5.2,8.3,11.2,8.3c3.9,0,6.9-1.2,9.4-3.7l4.3,5c-3.1,3.7-7.9,5.6-13.9,5.6
			c-11.6,0-19-7.4-19-17.7c0-10.3,7.6-17.6,17.8-17.6c10.1,0,17.4,7,17.4,17.8C325.1,34.6,325,35.5,324.9,36.3z M297.8,30.9h19.6
			c-0.6-5-4.5-8.4-9.7-8.4C302.4,22.6,298.6,25.9,297.8,30.9z"/>
	</g>
</g>
</svg>
