<?xml version="1.0" encoding="utf-8"?>

<svg version="1.1" id="Layer_1" xmlns="http://www.w3.org/2000/svg" xmlns:xlink="http://www.w3.org/1999/xlink" x="0px" y="0px"
	 viewBox="0 0 70.1 70.1" style="enable-background:new 0 0 70.1 70.1;" xml:space="preserve">
<style type="text/css">
	.st0{fill:#FFFFFF;}
	.st1{fill:#160F1B;}
	.st2{fill:#355EE0;}
</style>
<g>
	<g>
		<path class="st1" d="M28,39.6c-0.1-0.2-0.2-0.4-0.3-0.6c-0.1-0.2-0.3-0.4-0.5-0.6c-0.9-0.9-2.2-1.3-3.4-1
			c-0.2,0.1-0.5,0.1-0.7,0.2c-0.2,0.1-0.4,0.2-0.7,0.3c-0.2,0.1-0.4,0.3-0.6,0.5C21.2,39,20.8,40,20.8,41c0,0.2,0,0.5,0.1,0.7
			c0,0.2,0.1,0.5,0.2,0.7c0.1,0.2,0.2,0.4,0.3,0.7c0.1,0.2,0.3,0.4,0.5,0.6c0.7,0.7,1.7,1.1,2.6,1.1c1,0,1.9-0.4,2.6-1.1
			c0.2-0.2,0.3-0.4,0.5-0.6c0.1-0.2,0.3-0.4,0.3-0.7c0.1-0.2,0.2-0.5,0.2-0.7c0-0.2,0.1-0.5,0.1-0.7c0-0.3,0-0.5-0.1-0.7
			C28.2,40,28.1,39.8,28,39.6z"/>
		<path class="st1" d="M45.5,24.6c-2.1,0-3.7,1.7-3.7,3.7V41c0,2.1,1.7,3.7,3.7,3.7c2.1,0,3.7-1.7,3.7-3.7V28.3
			C49.3,26.2,47.6,24.6,45.5,24.6z"/>
		<path class="st1" d="M34.9,31.1c-2.1,0-3.7,1.7-3.7,3.7V41c0,2.1,1.7,3.7,3.7,3.7c2.1,0,3.7-1.7,3.7-3.7v-6.2
			C38.6,32.8,37,31.1,34.9,31.1z"/>
		<path class="st1" d="M35,0C15.7,0,0,15.7,0,35c0,0.1,0,0.2,0,0.4c0,0.1,0,0.1,0,0.2V66c0,2,1.7,3.7,3.7,3.7
			c1.2,0,29.8,0.3,31.3,0.3c19.3,0,35-15.7,35-35S54.4,0,35,0z M35,62.6c-1.2,0-19.5-0.2-27.6-0.3V36c0-0.1,0-0.3,0-0.4l0-0.5
			C7.5,19.8,19.8,7.5,35,7.5S62.6,19.8,62.6,35S50.2,62.6,35,62.6z"/>
	</g>
</g>
</svg>
